<svg xmlns="http://www.w3.org/2000/svg" width="21.333" height="21.333" viewBox="0 0 72 72" shape-rendering="geometricPrecision" text-rendering="geometricPrecision" image-rendering="optimizeQuality" fill-rule="evenodd" clip-rule="evenodd"><defs><style>.fil1{fill:#73a4b0}.fil3{fill:#87b0ba}.fil2{fill:#b2d4dc}</style></defs><g id="Layer_x0020_1"><path fill="#e3e3e3" d="M0 0h71.666v71.666H0z"/><path class="fil1" d="M47 72h-5l-14-8 17-9 18 8z"/><g id="_668989192"><path class="fil1" d="M65 35l-20-9-19 10 19 9z"/><path class="fil2" d="M45 68V45l-19-9 1 23z"/><path class="fil3" d="M45 68V45l20-10-2 22z"/></g><path d="M17 0H0v72h24C3 50-6 24 17 0z" fill="#d4d4d4"/><path class="fil1" d="M68 1l-1-1H26l-3 2 22 11z"/><path class="fil2" d="M45 41V13L23 2l1 28z"/><path class="fil3" d="M45 41V13L68 1l-2 27zM62 72H47l16-9z"/><path class="fil2" d="M42 72H28v-8z"/></g></svg>